<svg width="54" height="40" viewBox="0 0 54 40" fill="none" xmlns="http://www.w3.org/2000/svg">
<g filter="url(#filter0_d_128_193)">
<path d="M34.2873 27.2429H18.8103C18.6031 28.5509 17.936 29.742 16.929 30.6021C15.922 31.4621 14.6411 31.9346 13.3168 31.9346C11.9925 31.9346 10.7117 31.4621 9.70464 30.6021C8.69762 29.742 8.03052 28.5509 7.82332 27.2429H5.88631C5.39149 27.2397 4.91814 27.0404 4.57002 26.6887C4.22191 26.337 4.02745 25.8618 4.02931 25.3669V1.87695C4.02719 1.38195 4.22152 0.906335 4.56966 0.554443C4.9178 0.202551 5.39131 0.00317363 5.88631 0H31.4373C31.9322 0.00317353 32.4056 0.202522 32.7536 0.554443C33.1016 0.906364 33.2957 1.38204 33.2933 1.87695V3.78198H40.4143C40.4947 3.78164 40.5747 3.79208 40.6523 3.81299C42.9523 4.01299 44.1093 5.2129 45.3293 7.2749L48.8883 13.3689C48.9732 13.5136 49.018 13.6782 49.0183 13.8459V26.304C49.0194 26.5515 48.9221 26.7892 48.7479 26.9651C48.5737 27.141 48.3369 27.2406 48.0893 27.2419H45.2753C45.0681 28.5499 44.401 29.741 43.394 30.6011C42.387 31.4611 41.1061 31.9336 39.7818 31.9336C38.4575 31.9336 37.1767 31.4611 36.1696 30.6011C35.1626 29.741 34.4955 28.5499 34.2883 27.2419L34.2873 27.2429ZM36.0653 26.304C36.0732 27.0369 36.2977 27.7511 36.7107 28.3567C37.1236 28.9623 37.7065 29.4322 38.3859 29.7073C39.0653 29.9824 39.811 30.0503 40.5289 29.9026C41.2469 29.7548 41.9051 29.398 42.4207 28.877C42.9363 28.3559 43.2862 27.6941 43.4265 26.9746C43.5667 26.2551 43.491 25.5103 43.2088 24.8337C42.9267 24.1572 42.4507 23.5794 41.8408 23.1729C41.2309 22.7663 40.5143 22.5491 39.7813 22.5488C38.791 22.5552 37.8436 22.9543 37.1469 23.6582C36.4503 24.3621 36.0613 25.3136 36.0653 26.304ZM9.60134 26.304C9.60923 27.0369 9.83376 27.7511 10.2467 28.3567C10.6596 28.9623 11.2425 29.4322 11.9219 29.7073C12.6013 29.9824 13.347 30.0503 14.0649 29.9026C14.7829 29.7548 15.4411 29.398 15.9567 28.877C16.4723 28.3559 16.8222 27.6941 16.9625 26.9746C17.1027 26.2551 17.027 25.5103 16.7448 24.8337C16.4627 24.1572 15.9867 23.5794 15.3768 23.1729C14.7669 22.7663 14.0503 22.5491 13.3173 22.5488C12.3268 22.5549 11.3791 22.9537 10.6823 23.6577C9.98545 24.3617 9.59634 25.3134 9.60033 26.304H9.60134ZM45.2733 25.366H47.1593V19.7478H44.4233C44.3007 19.7473 44.1794 19.7227 44.0664 19.6753C43.9533 19.6279 43.8507 19.5585 43.7644 19.4714C43.6781 19.3843 43.6099 19.281 43.5635 19.1675C43.5172 19.054 43.4937 18.9324 43.4943 18.8098V16.9629C43.494 16.2423 43.7696 15.5488 44.2643 15.0249H37.8853C37.8081 15.0248 37.7312 15.015 37.6563 14.9958C36.9516 14.933 36.2961 14.6081 35.8194 14.0852C35.3428 13.5623 35.0798 12.8794 35.0823 12.1719V7.47192C35.0817 7.34927 35.1052 7.22758 35.1515 7.11401C35.1978 7.00044 35.2661 6.89725 35.3523 6.81006C35.4386 6.72286 35.5412 6.6535 35.6543 6.60596C35.7674 6.55841 35.8887 6.53361 36.0113 6.53296H42.4943C42.15 6.21428 41.7426 5.97123 41.2986 5.81982C40.8545 5.66842 40.3836 5.61187 39.9163 5.65381H33.2933V25.3618H34.2873C34.4945 24.0538 35.1616 22.8627 36.1687 22.0027C37.1757 21.1426 38.4565 20.6702 39.7808 20.6702C41.1051 20.6702 42.386 21.1426 43.393 22.0027C44.4 22.8627 45.0671 24.0538 45.2743 25.3618L45.2733 25.366ZM18.8093 25.366H31.4363V1.87598H5.88631V25.366H7.82332C8.03052 24.058 8.69762 22.8666 9.70464 22.0066C10.7117 21.1465 11.9925 20.6741 13.3168 20.6741C14.6411 20.6741 15.922 21.1465 16.929 22.0066C17.936 22.8666 18.6031 24.058 18.8103 25.366H18.8093ZM45.3513 16.9658V17.875H47.1593V16.0278H46.2803C46.0335 16.0294 45.7973 16.1288 45.6234 16.304C45.4495 16.4792 45.352 16.716 45.3523 16.9629L45.3513 16.9658ZM36.9383 12.1738C36.9372 12.4263 37.0363 12.6691 37.2139 12.8486C37.3914 13.0282 37.6328 13.13 37.8853 13.1318C37.9492 13.1316 38.0129 13.1384 38.0753 13.1519H46.6003L43.8343 8.41602H36.9343L36.9383 12.1738ZM37.0313 26.3059C37.0284 25.5734 37.3162 24.8695 37.8316 24.3489C38.3469 23.8283 39.0478 23.5333 39.7803 23.5288C40.0291 23.5288 40.2677 23.6278 40.4436 23.8037C40.6195 23.9796 40.7183 24.218 40.7183 24.4668C40.7183 24.7156 40.6195 24.9542 40.4436 25.1301C40.2677 25.306 40.0291 25.4048 39.7803 25.4048C39.602 25.4032 39.4272 25.4548 39.2782 25.5527C39.1291 25.6507 39.0125 25.7905 38.9432 25.9548C38.8738 26.1191 38.8548 26.3005 38.8887 26.4756C38.9225 26.6507 39.0076 26.8118 39.1331 26.9385C39.2586 27.0651 39.419 27.1516 39.5938 27.187C39.7686 27.2224 39.9499 27.2051 40.1149 27.1372C40.2798 27.0693 40.4208 26.9538 40.5201 26.8057C40.6193 26.6575 40.6723 26.4833 40.6723 26.3049C40.6723 26.0587 40.7701 25.8226 40.9443 25.6484C41.1184 25.4743 41.3546 25.3765 41.6008 25.3765C41.8471 25.3765 42.0832 25.4743 42.2574 25.6484C42.4315 25.8226 42.5293 26.0587 42.5293 26.3049C42.5293 27.0343 42.2396 27.7338 41.7239 28.2495C41.2081 28.7652 40.5087 29.0549 39.7793 29.0549C39.05 29.0549 38.3505 28.7652 37.8348 28.2495C37.319 27.7338 37.0293 27.0343 37.0293 26.3049L37.0313 26.3059ZM10.5673 26.3059C10.5644 25.5734 10.8522 24.8695 11.3676 24.3489C11.8829 23.8283 12.5838 23.5333 13.3163 23.5288C13.5651 23.5288 13.8037 23.6278 13.9796 23.8037C14.1555 23.9796 14.2543 24.218 14.2543 24.4668C14.2543 24.7156 14.1555 24.9542 13.9796 25.1301C13.8037 25.306 13.5651 25.4048 13.3163 25.4048C13.138 25.4032 12.9632 25.4548 12.8141 25.5527C12.6651 25.6507 12.5485 25.7905 12.4791 25.9548C12.4098 26.1191 12.3908 26.3005 12.4246 26.4756C12.4585 26.6507 12.5435 26.8118 12.6691 26.9385C12.7946 27.0651 12.955 27.1516 13.1298 27.187C13.3046 27.2224 13.4859 27.2051 13.6509 27.1372C13.8158 27.0693 13.9568 26.9538 14.0561 26.8057C14.1553 26.6575 14.2083 26.4833 14.2083 26.3049C14.2083 26.0587 14.3061 25.8226 14.4803 25.6484C14.6544 25.4743 14.8906 25.3765 15.1368 25.3765C15.3831 25.3765 15.6193 25.4743 15.7934 25.6484C15.9675 25.8226 16.0653 26.0587 16.0653 26.3049C16.0653 27.0343 15.7756 27.7338 15.2599 28.2495C14.7441 28.7652 14.0447 29.0549 13.3153 29.0549C12.586 29.0549 11.8865 28.7652 11.3708 28.2495C10.8551 27.7338 10.5653 27.0343 10.5653 26.3049L10.5673 26.3059ZM8.70934 5.65991C8.46056 5.65991 8.22198 5.56116 8.04607 5.38525C7.87016 5.20934 7.77132 4.9707 7.77132 4.72192C7.77132 4.47315 7.87016 4.2345 8.04607 4.05859C8.22198 3.88268 8.46056 3.78394 8.70934 3.78394H28.6093C28.8581 3.78394 29.0967 3.88268 29.2726 4.05859C29.4485 4.2345 29.5473 4.47315 29.5473 4.72192C29.5473 4.9707 29.4485 5.20934 29.2726 5.38525C29.0967 5.56116 28.8581 5.65991 28.6093 5.65991H8.70934Z" fill="#F16D7F"/>
</g>
<defs>
<filter id="filter0_d_128_193" x="0.0292969" y="0" width="52.9883" height="39.9336" filterUnits="userSpaceOnUse" color-interpolation-filters="sRGB">
<feFlood flood-opacity="0" result="BackgroundImageFix"/>
<feColorMatrix in="SourceAlpha" type="matrix" values="0 0 0 0 0 0 0 0 0 0 0 0 0 0 0 0 0 0 127 0" result="hardAlpha"/>
<feOffset dy="4"/>
<feGaussianBlur stdDeviation="2"/>
<feComposite in2="hardAlpha" operator="out"/>
<feColorMatrix type="matrix" values="0 0 0 0 0 0 0 0 0 0 0 0 0 0 0 0 0 0 0.25 0"/>
<feBlend mode="normal" in2="BackgroundImageFix" result="effect1_dropShadow_128_193"/>
<feBlend mode="normal" in="SourceGraphic" in2="effect1_dropShadow_128_193" result="shape"/>
</filter>
</defs>
</svg>
